<svg xmlns="http://www.w3.org/2000/svg" width="24" height="24" fill="none" class="profile-editor__navigation-icon is-linkedin" viewBox="0 0 24 24"><path fill="#000" d="M16.667 4H7.333A3.334 3.334 0 0 0 4 7.333v9.334A3.334 3.334 0 0 0 7.333 20h9.334A3.333 3.333 0 0 0 20 16.667V7.333A3.333 3.333 0 0 0 16.667 4M9.333 16.667h-2V9.333h2zm-1-8.179a1.17 1.17 0 0 1-1.166-1.176c0-.65.522-1.176 1.166-1.176S9.5 6.663 9.5 7.312c0 .65-.522 1.176-1.167 1.176m9 8.179h-2V12.93c0-2.246-2.666-2.076-2.666 0v3.736h-2V9.333h2v1.177c.93-1.724 4.666-1.851 4.666 1.65z"></path></svg>